nColumns=19
nRows=82
DataType=double
version=3
OpenSimVersion=4.1
endheader
time	ground_force_1_vx	ground_force_1_vy	ground_force_1_vz	ground_force_1_px	ground_force_1_py	ground_force_1_pz	ground_force_1_mx	ground_force_1_my	ground_force_1_mz	ground_force_2_vx	ground_force_2_vy	ground_force_2_vz	ground_force_2_px	ground_force_2_py	ground_force_2_pz	ground_force_2_mx	ground_force_2_my	ground_force_2_mz
1.96	413.885	1062.83	-64.5158	0.462654	0	-0.233938	0	27.6692	0	0	0	0	0.731972	0	-0.348373	0	0	0
1.965	403.087	859.876	-32.5801	0.403676	0	-0.230792	0	5.78745	0	0	0	0	0.760934	0	-0.3464	0	0	0
1.97	364.038	677.263	13.3617	0.364522	0	-0.225143	0	-26.3532	0	0	0	0	0.790099	0	-0.344661	0	0	0
1.975	301.812	513.718	47.0291	0.359148	0	-0.219103	0	-44.8398	0	0	0	0	0.81927	0	-0.342753	0	0	0
1.98	235.148	359.097	47.2682	0.370558	0	-0.216761	0	-36.5078	0	0	0	0	0.848366	0	-0.340899	0	0	0
1.985	181.513	216.494	18.7327	0.379058	0	-0.220074	0	-12.5823	0	0	0	0	0.877805	0	-0.339316	0	0	0
1.99	143.877	103.667	-13.6086	0.349325	0	-0.220103	0	7.42735	0	0	0	0	0.907147	0	-0.338915	0	0	0
1.995	113.021	30.9989	-26.8161	0.330765	0	-0.218865	0	11.8968	0	0	0	0	0.936477	0	-0.338288	0	0	0
2	0	0	0	0.31462	0	-0.217368	0	0	0	0	0	0	0.965571	0	-0.337687	0	0	0
2.005	0	0	0	0.29929	0	-0.215495	0	0	0	0	0	0	0.994893	0	-0.336734	0	0	0
2.01	0	0	0	0.284027	0	-0.213079	0	0	0	0	0	0	1.02336	0	-0.337443	0	0	0
2.015	0	0	0	0.268578	0	-0.209985	0	0	0	0	0	0	1.05081	0	-0.337606	0	0	0
2.02	0	0	0	0.253269	0	-0.205877	0	0	0	0	0	0	1.07801	0	-0.338515	0	0	0
2.025	0	0	0	0.240017	0	-0.200904	0	0	0	0	0	0	1.10452	0	-0.339813	0	0	0
2.03	0	0	0	0.225195	0	-0.197133	0	0	0	0	0	0	1.12998	0	-0.341696	0	0	0
2.035	0	0	0	0.208723	0	-0.194563	0	0	0	0	0	0	1.15437	0	-0.344192	0	0	0
2.04	0	0	0	0.19237	0	-0.193651	0	0	0	0	0	0	1.17713	0	-0.347448	0	0	0
2.045	0	0	0	0.179638	0	-0.191688	0	0	0	0	0	0	1.19789	0	-0.349999	0	0	0
2.05	0	0	0	0.16864	0	-0.190198	0	0	0	0	0	0	1.21615	0	-0.353822	0	0	0
2.055	0	0	0	0.158013	0	-0.189546	0	0	0	0	0	0	1.23188	0	-0.35727	0	0	0
2.06	0	0	0	0.149823	0	-0.189826	0	0	0	0	0	0	1.24522	0	-0.360252	0	0	0
2.065	0	0	0	0.141171	0	-0.190228	0	0	0	0	0	0	1.25602	0	-0.362617	0	0	0
2.07	0	0	0	0.1341	0	-0.190903	0	0	0	0	0	0	1.2645	0	-0.364453	0	0	0
2.075	0	0	0	0.127435	0	-0.189536	0	0	0	0	0	0	1.27057	0	-0.366091	0	0	0
2.08	0	0	0	0.120737	0	-0.194276	0	0	0	0	0	0	1.27446	0	-0.367168	0	0	0
2.085	0	0	0	0.115588	0	-0.196632	0	0	0	0	0	0	1.27605	0	-0.367356	0	0	0
2.09	0	0	0	0.112066	0	-0.197226	0	0	0	0	0	0	1.2758	0	-0.366732	0	0	0
2.095	0	0	0	0.109514	0	-0.199227	0	0	0	0	0	0	1.27378	0	-0.365196	0	0	0
2.1	0	0	0	0.108378	0	-0.201349	0	0	0	0	0	0	1.2701	0	-0.362982	0	0	0
2.105	0	0	0	0.10881	0	-0.203654	0	0	0	0	0	0	1.2647	0	-0.360325	0	0	0
2.11	0	0	0	0.111369	0	-0.205623	0	0	0	0	0	0	1.25749	0	-0.35735	0	0	0
2.115	0	0	0	0.115646	0	-0.207552	0	0	0	0	0	0	1.24866	0	-0.353973	0	0	0
2.12	0	0	0	0.121768	0	-0.210499	0	0	0	0	0	0	1.23817	0	-0.349931	0	0	0
2.125	0	0	0	0.128982	0	-0.210668	0	0	0	0	0	0	1.22625	0	-0.345447	0	0	0
2.13	0	0	0	0.137936	0	-0.212346	0	0	0	-29.613	32.0782	-6.5409	1.21295	0	-0.340541	0	-3.33612	0
2.135	0	0	0	0.14807	0	-0.21337	0	0	0	-70.8495	138.476	6.76153	1.15176	-0	-0.349495	0	-0.830276	0
2.14	0	0	0	0.159333	0	-0.21399	0	0	0	-120.154	311.891	34.0267	1.05035	0	-0.368376	0	1.50101	0
2.145	0	0	0	0.171879	0	-0.214118	0	0	0	-162.392	541.88	77.1534	1.04896	0	-0.354758	0	3.28131	0
2.15	0	0	0	0.184857	0	-0.214016	0	0	0	-181.081	788.025	129.354	1.04564	0	-0.34345	0	4.89618	0
2.155	0	0	0	0.199037	0	-0.213527	0	0	0	-176.864	1012.74	167.244	1.03852	0	-0.334537	0	3.56102	0
2.16	0	0	0	0.216124	0	-0.212628	0	0	0	-175.697	1202.58	162.694	1.02362	0	-0.328652	0	-4.22867	0
2.165	0	0	0	0.229853	0	-0.211705	0	0	0	-198.776	1357.47	107.307	1.00335	0	-0.325893	0	-13.6074	0
2.17	0	0	0	0.245835	0	-0.210742	0	0	0	-239.419	1481.84	24.366	0.98448	0	-0.325372	0	-14.5789	0
2.175	0	0	0	0.262708	0	-0.209637	0	0	0	-284.118	1592.53	-47.3998	0.968762	0	-0.325537	0	-5.17408	0
2.18	0	0	0	0.280211	0	-0.208504	0	0	0	-324.201	1706.75	-82.3961	0.95444	0	-0.325376	0	6.47797	0
2.185	0	0	0	0.297979	0	-0.207863	0	0	0	-351.32	1833.74	-76.168	0.941613	0	-0.324402	0	10.7988	0
2.19	0	0	0	0.316498	0	-0.207056	0	0	0	-362.411	1977.17	-40.701	0.929915	0	-0.322991	0	6.91223	0
2.195	0	0	0	0.335602	0	-0.206604	0	0	0	-361.804	2129.85	7.61681	0.918639	0	-0.321701	0	2.73218	0
2.2	0	0	0	0.355139	0	-0.20634	0	0	0	-353.631	2270.73	53.2841	0.907756	0	-0.321014	0	4.4919	0
2.205	0	0	0	0.375464	0	-0.205114	0	0	0	-339.99	2377.2	85.9983	0.895	0	-0.321064	0	8.75591	0
2.21	0	0	0	0.395824	0	-0.206121	0	0	0	-316.495	2442.23	104.963	0.878203	0	-0.321517	0	7.34835	0
2.215	0	0	0	0.416633	0	-0.205595	0	0	0	-274.392	2475.17	114.313	0.857374	0	-0.321892	0	-0.508745	0
2.22	0	0	0	0.438192	0	-0.205556	0	0	0	-216.389	2492.26	114.488	0.83398	0	-0.322093	0	-7.4257	0
2.225	0	0	0	0.45985	0	-0.204864	0	0	0	-154.297	2501.57	103.714	0.810229	0	-0.322377	0	-7.9428	0
2.23	0	0	0	0.481885	0	-0.204634	0	0	0	-94.5331	2502.05	82.9629	0.787475	0	-0.322904	0	-1.89126	0
2.235	0	0	0	0.504463	0	-0.203926	0	0	0	-35.4803	2492.33	57.6978	0.765734	0	-0.323373	0	5.7855	0
2.24	0	0	0	0.527565	0	-0.203298	0	0	0	26.7149	2470.87	33.0363	0.744694	0	-0.323493	0	9.23557	0
2.245	0	0	0	0.551449	0	-0.20225	0	0	0	90.7083	2434.79	10.9019	0.723893	0	-0.323255	0	10.171	0
2.25	0	0	0	0.575721	0	-0.201584	0	0	0	150.925	2383.44	-7.5465	0.704022	0	-0.32272	0	14.8368	0
2.255	0	0	0	0.600786	0	-0.200862	0	0	0	203.146	2317.96	-18.1256	0.686972	0	-0.321798	0	22.3861	0
2.26	0	0	0	0.626392	0	-0.200491	0	0	0	243.943	2236	-16.639	0.672873	0	-0.320312	0	24.7543	0
2.265	0	0	0	0.652524	0	-0.199713	0	0	0	273.499	2133.02	-3.61336	0.660201	0	-0.318223	0	14.83	0
2.27	0	0	0	0.679107	0	-0.19918	0	0	0	297.09	2007.81	16.0272	0.647494	0	-0.315736	0	-6.48165	0
2.275	0	0	0	0.706258	0	-0.198629	0	0	0	320.008	1860.55	33.5953	0.63288	0	-0.31339	0	-28.1894	0
2.28	0	0	0	0.733464	0	-0.198292	0	0	0	345.325	1689.83	37.5309	0.613672	0	-0.311978	0	-36.7004	0
2.285	0	0	0	0.761709	0	-0.197164	0	0	0	372.22	1494.88	18.7913	0.58546	0	-0.312408	0	-26.253	0
2.29	0	0	0	0.789395	0	-0.19695	0	0	0	397.824	1280.54	-20.953	0.543271	0	-0.31517	0	-0.614082	0
2.295	0	0	0	0.81724	0	-0.196625	0	0	0	418.315	1059.93	-66.9331	0.484896	0	-0.319967	0	31.2384	0
2.3	0	0	0	0.845252	0	-0.196392	0	0	0	424.661	851.503	-97.6342	0.41728	0	-0.325218	0	55.7744	0
2.305	0	0	0	0.873303	0	-0.196222	0	0	0	404.474	668.26	-98.2073	0.3613	0	-0.327936	0	58.3327	0
2.31	0	0	0	0.901768	0	-0.195586	0	0	0	351.106	508.744	-71.8295	0.33773	0	-0.326117	0	36.7004	0
2.315	0	0	0	0.929784	0	-0.195819	0	0	0	273.78	361.163	-36.8468	0.341942	0	-0.32167	0	7.70047	0
2.32	0	0	0	0.957826	0	-0.196156	0	0	0	193.888	222.542	-12.9701	0.351506	0	-0.319098	0	-9.14999	0
2.325	0	0	0	0.985809	0	-0.196727	0	0	0	127.8	109.971	-6.36847	0.3749	0	-0.316182	0	-11.2182	0
2.33	0	0	0	1.01376	0	-0.197454	0	0	0	79.7708	35.8032	-10.8577	0.361213	0	-0.316538	0	-7.60312	0
2.335	0	0	0	1.04141	0	-0.198206	0	0	0	0	0	0	0.344769	0	-0.317803	0	0	0
2.34	0	0	0	1.06856	0	-0.198721	0	0	0	0	0	0	0.32881	0	-0.319472	0	0	0
2.345	0	0	0	1.09509	0	-0.199895	0	0	0	0	0	0	0.312523	0	-0.320892	0	0	0
2.35	0	0	0	1.12142	0	-0.201181	0	0	0	0	0	0	0.295894	0	-0.322422	0	0	0
2.355	0	0	0	1.14608	0	-0.20212	0	0	0	0	0	0	0.279395	0	-0.322668	0	0	0
2.36	0	0	0	1.16939	0	-0.202892	0	0	0	0	0	0	0.264781	0	-0.321388	0	0	0
2.365	0	0	0	1.19158	0	-0.203766	0	0	0	0	0	0	0.250246	0	-0.31758	0	0	0
